<svg xmlns="http://www.w3.org/2000/svg" xmlns:xlink="http://www.w3.org/1999/xlink" version="1.1" viewBox="2 1 27.86 30">
    <title>logo</title>
    <g id="Page-5" stroke="none" stroke-width="1" fill="none" fill-rule="evenodd">
        <g id="Home" transform="translate(-464, -105)" fill="#CCD1D3">
            <g id="logo" transform="translate(466, 106)">
                <path d="M25.4632272,1.88441018 C26.4312807,5.07127827 27.0036667,7.12944106 27.180385,8.05889854 C27.4454625,9.45308477 27.8132983,13.4330156 27.8132983,13.6443836 C27.9065233,15.1260001 27.8527122,16.5927126 27.8132983,18.0608844 C27.8132983,24.5943649 22.3950896,28.7781405 15.9895266,29.8907974 C15.1878497,30.0364009 12.7486616,30.0364009 11.8950118,29.8907974 C5.7693286,29.2453913 0.0657635014,24.5943649 0.0657635014,18.0608844 C-0.0219211671,16.362679 -0.0219211671,14.8905121 0.0657635014,13.6443836 C0.0657635014,12.7518707 0.332864492,10.8499983 0.83530644,8.05889854 C1.17026774,6.19816536 1.7171527,4.14000097 2.47596132,1.88440536 C2.65133632,1.07562686 3.22830868,-0.158538881 4.03708718,0.0168361211 C4.39490665,0.0944254597 4.9327787,1.02102753 5.14915986,1.31638168 L6.18995347,2.73698998 C7.50842521,4.53660892 9.60573827,5.59999287 11.8366565,5.59999287 L16.1024913,5.59999287 C18.333361,5.59999287 20.4306345,4.53665488 21.749113,2.73710096 L22.7900283,1.3163851 L22.7900283,1.3163851 C22.9950213,1.03657554 23.617015,0.131383384 23.9887218,0.0168361211 C24.7975908,-0.09225651 25.2878529,1.07563152 25.4632272,1.88441018 Z M19.1027795,11.7515975 C17.3831223,11.7515975 15.9890647,15.5375669 15.9890647,18.1993975 C15.9890647,20.8612282 17.3831223,21.4521261 19.1027795,21.4521261 L19.2055597,21.4514052 C20.8776414,21.4276618 22.2164944,20.8079915 22.2164944,18.1993975 C22.2164944,15.5375669 20.8224367,11.7515975 19.1027795,11.7515975 Z M8.697454,11.7515975 C6.97779678,11.7515975 5.58373916,15.5375669 5.58373916,18.1993975 C5.58373916,20.8612282 6.97779678,21.4521261 8.697454,21.4521261 L8.80023416,21.4514052 C10.4723159,21.4276618 11.8111688,20.8079915 11.8111688,18.1993975 C11.8111688,15.5375669 10.4171112,11.7515975 8.697454,11.7515975 Z" id="Shape-Copy-8"/>
            </g>
        </g>
    </g>
</svg>